<svg width="34" height="31" viewBox="0 0 34 31" fill="none" xmlns="http://www.w3.org/2000/svg">
<path d="M21.7222 24.452L21.9838 21.4185C22.0192 20.9589 22.4293 20.5487 22.8889 20.5134L25.9224 20.2517C26.4951 20.0608 26.7709 19.4032 26.5022 18.8517L25.8729 17.6001C25.7244 17.296 25.3143 17.0415 24.9749 17.0415L21.7575 17.0344C21.5242 17.0415 21.206 16.9071 21.0433 16.7445L19.0281 14.7292C18.7311 14.4323 18.8089 14.0716 19.1978 13.909L24.1688 11.9362C24.9466 11.625 25.1021 10.8897 24.5082 10.2957L23.596 9.38351C23.1222 8.90975 22.2242 8.71883 21.602 8.97339L15.9451 11.222C15.7825 11.2856 15.535 11.2361 15.4077 11.1089L13.2864 8.98753C12.6217 8.32285 11.3489 8.02587 10.4509 8.31578C10.1327 8.42185 9.88521 8.66934 9.77914 8.98753C9.48923 9.88556 9.79328 11.1654 10.458 11.8301L12.5793 13.9514C12.7066 14.0787 12.7561 14.3262 12.6924 14.4888L10.4509 20.1386C10.1893 20.7538 10.3802 21.6518 10.8539 22.1256L11.7661 23.0377C12.3601 23.6317 13.0955 23.4762 13.4066 22.6983L15.3794 17.7274C15.5279 17.3385 15.9027 17.2607 16.1997 17.5577L18.2149 19.5729C18.3776 19.7356 18.5119 20.0538 18.5119 20.28L18.519 23.4974C18.519 23.8368 18.7665 24.2398 19.0776 24.3954L20.3292 25.0247C20.8666 25.3076 21.5313 25.0389 21.7222 24.452Z" stroke="#282828" stroke-opacity="0.9" stroke-width="1.5" stroke-linecap="round" stroke-linejoin="round"/>
</svg>
