<svg width="16" height="16" viewBox="0 0 16 16" fill="none" xmlns="http://www.w3.org/2000/svg">
<path d="M14.6667 10C14.6667 12.58 12.58 14.6667 10 14.6667L10.7 13.5" stroke="#282828" stroke-linecap="round" stroke-linejoin="round"/>
<path d="M1.33337 6.00004C1.33337 3.42004 3.42004 1.33337 6.00004 1.33337L5.30004 2.50004" stroke="#282828" stroke-linecap="round" stroke-linejoin="round"/>
<path d="M9.48047 1.83337H13.1865C13.7844 1.83337 13.957 1.91971 14.0195 1.98181C14.0774 2.03932 14.1564 2.19199 14.165 2.70642H8.50195C8.51058 2.19155 8.58963 2.03921 8.64746 1.98181C8.70223 1.92746 8.84086 1.85459 9.27539 1.83728L9.48047 1.83337Z" fill="#282828" stroke="#282828"/>
<path d="M14.167 4.37329V5.53345C14.167 6.12373 14.0807 6.29107 14.0195 6.35181C13.957 6.41391 13.7844 6.50024 13.1865 6.50024H9.48047C8.88311 6.50024 8.71017 6.4139 8.64746 6.35181C8.58627 6.29107 8.50002 6.12375 8.5 5.53345V4.37329H14.167Z" fill="#282828" stroke="#282828"/>
<path d="M2.81384 9.5H6.5199C7.11775 9.5 7.29033 9.58633 7.35291 9.64844C7.41073 9.70595 7.4898 9.85862 7.49841 10.373H1.83533C1.84395 9.85818 1.923 9.70583 1.98083 9.64844C2.04342 9.58634 2.21603 9.5 2.81384 9.5Z" fill="#282828" stroke="#282828"/>
<path d="M1.66671 11.54C1.48004 11.54 1.33337 11.6867 1.33337 11.8734V12.54V13.2C1.33337 14.3734 1.62671 14.6667 2.81337 14.6667H6.52004C7.70671 14.6667 8.00004 14.3734 8.00004 13.2V12.54V11.8734C8.00004 11.6867 7.85337 11.54 7.66671 11.54H1.66671Z" fill="#282828"/>
</svg>
