<svg width="20" height="20" viewBox="0 0 20 20" fill="none" xmlns="http://www.w3.org/2000/svg">
<path d="M18.3332 10C18.3332 5.4 14.5998 1.66666 9.99984 1.66666C5.39984 1.66666 1.6665 5.4 1.6665 10C1.6665 14.6 5.39984 18.3333 9.99984 18.3333" stroke="#2C2C2C" stroke-width="1.5" stroke-linecap="round" stroke-linejoin="round"/>
<path d="M6.66667 2.5H7.5C5.875 7.36667 5.875 12.6333 7.5 17.5H6.66667" stroke="#2C2C2C" stroke-width="1.5" stroke-linecap="round" stroke-linejoin="round"/>
<path d="M12.5 2.5C13.3083 4.93333 13.7167 7.46667 13.7167 10" stroke="#2C2C2C" stroke-width="1.5" stroke-linecap="round" stroke-linejoin="round"/>
<path d="M2.5 13.3333V12.5C4.93333 13.3083 7.46667 13.7167 10 13.7167" stroke="#2C2C2C" stroke-width="1.5" stroke-linecap="round" stroke-linejoin="round"/>
<path d="M2.5 7.49997C7.36667 5.87497 12.6333 5.87497 17.5 7.49997" stroke="#2C2C2C" stroke-width="1.5" stroke-linecap="round" stroke-linejoin="round"/>
<path d="M15.1667 17.8334C16.6394 17.8334 17.8333 16.6394 17.8333 15.1667C17.8333 13.6939 16.6394 12.5 15.1667 12.5C13.6939 12.5 12.5 13.6939 12.5 15.1667C12.5 16.6394 13.6939 17.8334 15.1667 17.8334Z" stroke="#2C2C2C" stroke-width="1.5" stroke-linecap="round" stroke-linejoin="round"/>
<path d="M18.3333 18.3333L17.5 17.5" stroke="#2C2C2C" stroke-width="1.5" stroke-linecap="round" stroke-linejoin="round"/>
</svg>
