<svg width="24" height="24" viewBox="0 0 24 24" fill="none" xmlns="http://www.w3.org/2000/svg">
<g clip-path="url(#clip0_47_1100)">
<path d="M7.63004 3.56999C7.80942 3.47215 8.00004 3.62267 8.00004 3.82701V17.3828C8.00004 17.6061 7.84762 17.7949 7.65024 17.8991C7.64347 17.9027 7.63673 17.9063 7.63004 17.91L5.28004 19.25C3.64004 20.19 2.29004 19.41 2.29004 17.51V7.77999C2.29004 7.14999 2.74004 6.36999 3.30004 6.04999L7.63004 3.56999Z" fill="#7D7D7D"/>
<path d="M14.7219 6.10227C14.8922 6.18663 15 6.36026 15 6.55034V19.7035C15 20.072 14.615 20.3139 14.283 20.1539L10.033 18.1063C9.85998 18.023 9.75 17.8479 9.75 17.6559V4.44558C9.75 4.07472 10.1396 3.83293 10.4719 3.99751L14.7219 6.10227Z" fill="#7D7D7D"/>
<path d="M22 6.49V16.22C22 16.85 21.55 17.63 20.99 17.95L17.4986 19.951C17.1653 20.142 16.75 19.9013 16.75 19.5172V6.33032C16.75 6.15081 16.8462 5.98507 17.0021 5.89608L19.01 4.75C20.65 3.81 22 4.59 22 6.49Z" fill="#7D7D7D"/>
</g>
<defs>
<clipPath id="clip0_47_1100">
<rect width="24" height="24" fill="white"/>
</clipPath>
</defs>
</svg>
