<svg width="78" height="74" viewBox="0 0 78 74" fill="none" xmlns="http://www.w3.org/2000/svg">
<g clip-path="url(#clip0_41_2689)">
<path fill-rule="evenodd" clip-rule="evenodd" d="M17.4074 60.1921C17.3567 60.3843 17.2934 60.579 17.2176 60.7763C16.7171 62.0741 16.1181 62.8479 15.419 63.0975C15.2181 63.2071 14.9683 63.301 14.6688 63.3786L13.5122 63.7069C13.441 63.7226 13.3479 63.7383 13.2337 63.754C13.1196 63.7693 13.0556 63.7616 13.0415 63.7302C13.0269 63.6992 13.0986 63.6292 13.2552 63.5196L13.5337 63.3319C13.5478 63.3162 13.8118 63.1442 14.3264 62.8164C15.8112 61.8468 16.5541 61.0893 16.5541 60.5419C16.4103 60.6048 16.2181 60.6357 15.9751 60.6357C15.3332 60.5266 15.0113 60.245 15.0113 59.7915C15.0113 59.448 15.1683 58.9634 15.4829 58.3378C15.8395 57.6503 16.1537 57.3063 16.4249 57.3063C16.7253 57.3063 16.9856 57.4317 17.2071 57.6813C17.4281 57.9319 17.5385 58.2206 17.5385 58.5489C17.552 58.6531 17.5593 58.8139 17.56 59.0311C17.7993 58.9909 17.996 58.8789 18.1505 58.695C18.1783 58.6793 18.2242 58.6243 18.2871 58.5301C18.3504 58.4358 18.3958 58.389 18.4241 58.389L18.5503 58.4832C18.5926 58.5148 18.6416 58.5301 18.6977 58.5301C18.9367 58.5301 19.1259 58.4048 19.2674 58.1537C19.3649 57.9653 19.4278 57.8711 19.457 57.8711C19.4993 57.9027 19.5694 57.95 19.6678 58.0122C19.9203 58.0753 20.166 57.84 20.4055 57.3063C20.4747 57.3063 20.5601 57.3455 20.6585 57.424C20.7847 57.3929 20.8759 57.3613 20.9321 57.3298C21.0022 57.534 21.0372 57.6827 21.0372 57.7769C21.0372 57.9969 21.0022 58.1695 20.9321 58.2948C20.7214 58.5301 20.4958 58.7103 20.2572 58.8361L19.6044 59.189C19.5761 59.189 19.4148 59.2517 19.1192 59.3769L18.8873 59.4716L18.5081 59.683L18.2978 59.7538C18.1589 59.8006 17.8614 59.9464 17.4074 60.1921ZM33.7628 59.769L33.7935 59.7064C33.7935 60.9993 34.1986 61.6452 35.0092 61.6452C35.4211 61.6452 35.7834 61.4815 36.0971 61.1545C36.3667 60.8123 36.6367 60.4772 36.9068 60.1502C36.9918 60.0885 37.0418 60.0415 37.0559 60.0102C37.0878 59.9681 37.1154 59.9324 37.1389 59.903C37.2265 59.6321 37.3563 59.3398 37.5275 59.026C38.0757 58.0329 38.637 57.5361 39.213 57.5361L39.4236 57.5596C39.4367 57.6047 39.4486 57.6499 39.4593 57.6951C39.654 57.7727 39.7689 57.8115 39.8036 57.8115C39.9945 57.8115 40.199 57.6152 40.4174 57.2217C40.5264 57.0254 40.6083 56.9346 40.6628 56.9498C40.7718 56.9802 40.7788 57.1309 40.6833 57.4032C40.6423 57.5392 40.5878 57.683 40.5198 57.8341C40.1645 58.6806 39.7766 59.1041 39.3541 59.1041V59.0907C39.2804 59.0755 39.1909 59.038 39.0859 58.9782C38.9459 58.8981 38.8475 58.8497 38.7914 58.8341C38.637 58.8018 38.4583 58.87 38.2544 59.038C38.0501 59.2065 37.9487 59.3787 37.9487 59.5551L37.9421 59.5591C37.9774 59.6759 38.0942 59.8848 38.2929 60.1855C38.5343 60.5515 38.6562 60.742 38.6562 60.7577C38.6562 60.929 38.5448 61.1666 38.3247 61.4699C38.1047 61.7736 37.9165 61.9252 37.7601 61.9252C37.6746 61.9252 37.5219 61.8787 37.3018 61.7852C37.0809 61.6917 36.9136 61.6452 36.7999 61.6452C36.5872 61.6452 36.4021 61.7468 36.2462 61.9485C36.1744 62.0425 36.0394 62.2755 35.8402 62.6495C35.6984 62.9295 35.5702 63.1398 35.4565 63.2798C35.0874 63.763 34.7169 64.0041 34.3477 64.0041C33.8363 64.0041 33.4517 63.716 33.1962 63.1398C32.997 62.6884 32.8979 62.1512 32.8979 61.5285L32.9352 61.4527C32.9227 61.455 32.9103 61.4561 32.8979 61.4561C32.8979 60.385 33.1048 58.4745 33.5189 55.7263C33.6184 55.3069 33.9047 54.5538 34.3759 53.4666L34.4612 53.4202C34.4754 53.4666 34.4685 53.5911 34.4398 53.7927L34.3544 54.3986L33.9905 57.24C33.8622 58.2497 33.7969 59.0497 33.7969 59.6394C33.7855 59.6834 33.7741 59.7266 33.7628 59.769ZM47.8957 58.5374C48.1002 58.3246 48.2496 58.1115 48.3444 57.8984C48.6275 57.2018 48.818 56.7262 48.9168 56.4727C49.1285 55.9658 49.4106 55.7123 49.7641 55.7123C50.0322 55.7123 50.2579 55.8547 50.4412 56.1401C50.7093 55.6336 50.8714 55.3802 50.9287 55.3802C51.0135 55.3802 51.1111 55.4748 51.2248 55.665C51.3377 55.8547 51.3941 56.0059 51.3941 56.1164C51.3941 56.4964 51.3024 56.8372 51.1192 57.138C50.9075 57.4866 50.6384 57.6609 50.3143 57.6609C50.2155 57.6609 50.0814 57.6213 49.9121 57.5421C49.7429 57.463 49.6079 57.4229 49.5095 57.4229C49.2978 57.4229 49.1213 57.5817 48.9805 57.8984C48.6275 58.6743 48.4302 59.102 48.3878 59.1812C48.1447 59.6167 47.9075 59.9877 47.6755 60.2945C47.6411 60.4025 47.6028 60.5113 47.5605 60.6209C47.0583 61.9213 46.4571 62.6966 45.7555 62.9467C45.5538 63.0565 45.3032 63.1505 45.0025 63.2283L43.8418 63.5572C43.7703 63.573 43.6768 63.5887 43.5622 63.6045C43.4477 63.6198 43.3835 63.6121 43.3693 63.5806C43.3546 63.5496 43.4266 63.4794 43.5838 63.3696L43.8633 63.1815C43.8775 63.1658 44.1424 62.9934 44.6589 62.665C46.1491 61.6935 46.8947 60.9346 46.8947 60.386C46.7503 60.4491 46.5574 60.4801 46.3136 60.4801C45.6693 60.3708 45.3462 60.0886 45.3462 59.6341C45.3462 59.29 45.5039 58.8045 45.8196 58.1777C46.1775 57.4888 46.4928 57.1442 46.765 57.1442C47.0665 57.1442 47.3278 57.2697 47.55 57.5198C47.7718 57.771 47.8827 58.0602 47.8827 58.3891C47.888 58.4299 47.8923 58.4793 47.8957 58.5374ZM63.879 59.1513V59.5117C63.879 60.5233 64.1702 61.0283 64.753 61.0283C64.8787 60.6708 65.0313 60.2581 65.2116 59.7915C65.5583 59.8698 65.7527 60.1495 65.794 60.6314C65.794 61.2076 65.683 61.7672 65.4611 62.3122C65.1561 63.0435 64.7459 63.4086 64.2328 63.4086C63.9416 63.4086 63.6779 63.2495 63.4413 62.9303C63.2051 62.6117 63.0737 62.2849 63.0458 61.9501C63.0182 61.6157 63.004 61.4253 63.004 61.3783V60.9349L63.0358 60.8688C63.0252 60.8705 63.0146 60.8713 63.004 60.8713C63.004 59.8046 63.2107 57.9022 63.6245 55.1655C63.724 54.7479 64.0101 53.9979 64.4809 52.9152L64.5663 52.869C64.5804 52.9152 64.5736 53.0392 64.5448 53.2399L64.4595 53.8433L64.0959 56.6729C63.9677 57.6783 63.9024 58.4749 63.9024 59.0622C63.8946 59.0923 63.8868 59.122 63.879 59.1513ZM71.7402 60.8705C71.7343 60.8711 71.7285 60.8713 71.7226 60.8713C71.7226 59.8046 71.9293 57.9022 72.3431 55.1655C72.4426 54.7479 72.7287 53.9979 73.1995 52.9152L73.2849 52.869C73.299 52.9152 73.2922 53.0392 73.2634 53.2399L73.1781 53.8433L72.8144 56.6729C72.6862 57.6783 72.621 58.4749 72.621 59.0622C72.615 59.0852 72.6091 59.1079 72.6031 59.1304C72.6076 59.1351 72.6121 59.1399 72.6167 59.1449C72.6167 59.686 72.6594 60.1263 72.7442 60.4659C72.9429 61.0065 73.3326 61.2768 73.9146 61.2768C74.2974 61.2768 74.6377 61.1379 74.9362 60.8595C75.2909 60.52 75.5177 60.335 75.6166 60.3039C75.6592 60.2883 75.7513 60.2803 75.8933 60.2803C76.0067 60.2958 76.1065 60.3039 76.1918 60.3039C76.3193 60.3039 76.4114 60.2803 76.4681 60.2342C76.6382 60.1108 76.7657 59.9408 76.8509 59.7241C76.8791 59.6163 76.9149 59.5005 76.9571 59.3766C77.0564 59.3922 77.1558 59.3997 77.256 59.3997C77.4262 59.3997 77.589 59.1529 77.7451 58.658C77.8158 58.4423 77.8725 58.334 77.9152 58.334C77.9719 58.334 78 58.4032 78 58.5421C78 58.9749 77.8866 59.4308 77.6598 59.9097C77.3903 60.4814 77.0778 60.7668 76.7235 60.7668C76.5534 61.0451 76.4468 61.2076 76.4046 61.2537C76.2199 61.4854 76.0489 61.6012 75.8933 61.6012C75.7232 61.5706 75.5885 61.5551 75.4891 61.5551C75.2483 61.5551 74.8858 61.8951 74.4036 62.5746C74.0212 63.1308 73.5957 63.4086 73.1271 63.4086C72.1908 63.4086 71.7226 62.5902 71.7226 60.9523C71.7285 60.9248 71.7343 60.8975 71.7402 60.8705ZM45.4593 8.7343C45.4984 8.84019 45.5543 8.93735 45.5634 9.00924C47.5749 12.7072 48.453 17.2679 47.6991 21.5429C47.0455 25.9071 44.7826 29.9623 41.4854 32.4045C38.3175 34.8769 34.3557 36.0224 30.5213 35.5492C25.5775 35.124 21.1582 31.6461 18.4642 27.0734C16.8128 24.146 14.9205 21.3436 12.5228 19.1392C10.6068 17.4762 8.08225 16.2741 5.64492 16.9943C3.50388 17.4851 1.68576 18.9456 0 20.4333C1.11166 16.7415 3.43514 13.097 6.9496 12.0765C9.17789 11.297 11.5066 11.8653 13.727 12.3591C13.9891 10.3897 15.5744 8.93196 17.2838 8.69102C18.3582 8.39359 19.4696 8.4588 20.568 8.51546C19.7951 9.25613 18.8292 9.85711 18.4719 10.9966C17.9375 12.609 18.5195 14.3285 19.1972 15.7654C20.02 17.5089 21.0894 19.2314 21.2533 21.2455C21.3727 22.5364 20.5522 23.5392 19.8665 24.4464C20.5229 26.0319 21.7906 27.2374 23.204 27.9274C25.0881 28.8705 27.1415 29.2601 29.1715 29.5605C32.8525 29.6441 36.7881 28.6619 39.5615 25.7765C41.1599 23.9617 42.2895 21.4629 42.1709 18.8596C42.3664 14.0459 39.1882 9.83036 35.4488 7.91449C33.1493 6.75416 30.6297 6.23956 28.1157 6.29028C26.6998 6.31982 24.8341 5.6267 23.8682 7.19444C23.8706 6.15318 23.7622 4.88603 24.641 4.21651C25.7207 3.458 27.0625 3.25848 28.3142 3.35378C28.3299 3.89233 28.8278 4.46358 29.312 4.16003C29.7803 4.06194 29.8147 3.52339 29.7988 3.08608C29.034 3.095 28.2717 3.15445 27.5123 3.25254C27.5441 3.01772 27.6102 2.54456 27.6419 2.30955C28.4994 0.521681 30.4418 0.000962586 32.1171 0.000962586C36.3328 -0.0495674 40.6887 1.89027 43.4042 5.59104C44.0548 6.53402 44.751 7.44151 45.2919 8.44933C45.3305 8.55596 45.3869 8.65256 45.4593 8.7343ZM38.172 11.4845C39.8869 12.8023 40.4084 15.2777 40.8503 17.4346C34.2687 17.4048 27.6843 17.4672 21.1052 17.4048C20.6604 16.9465 20.417 16.313 20.1286 15.7329C19.5543 14.4 19.2898 12.9482 19.2793 11.4755C25.5749 11.4787 31.8735 11.4607 38.172 11.4845ZM77.9103 11.3952C77.7864 11.66 77.6669 11.9308 77.5532 12.2013C76.8651 13.6919 75.5708 14.6498 74.2663 15.3669C71.7523 16.6669 68.9735 17.0864 66.245 17.3721C60.4337 17.4912 54.6169 17.3721 48.8026 17.4254C48.7997 15.3639 48.3526 13.323 47.6936 11.4071C57.766 11.425 67.8381 11.4487 77.9103 11.3952ZM71.7971 18.4163C70.6623 20.0704 69.2993 21.5906 67.5841 22.462C64.6122 24.0418 61.2751 24.2087 58.0572 24.491C54.6514 24.5237 51.2476 24.491 47.8447 24.5063C48.5935 22.6051 49.0858 20.5137 48.9588 18.4222C56.5724 18.4401 64.1862 18.4341 71.7971 18.4163ZM41.1253 18.8418C40.8581 19.9782 40.8394 21.1831 40.4003 22.2658C40.1012 23.1583 39.5084 23.8575 38.9208 24.5237C32.8765 24.5237 26.8295 24.494 20.785 24.5359C21.2455 24.0477 21.6374 23.4917 22.0049 22.9175C22.6112 21.5935 22.2379 20.103 21.7061 18.8387C28.1789 18.8537 34.6524 18.8446 41.1253 18.8418ZM70.1869 59.5093L69.9353 60.6705C69.7118 61.4131 69.5304 61.9111 69.3909 62.1634C69.1246 62.6691 68.7822 63.0169 68.3634 63.2061L67.6081 63.562C67.2729 63.72 66.9449 63.799 66.6226 63.799C66.5529 63.799 66.5109 63.7672 66.497 63.7041C66.455 63.562 66.6508 63.301 67.0848 62.922C67.2242 62.7958 67.5035 62.5507 67.9228 62.187C68.468 61.7131 68.915 61.129 69.2649 60.4335C69.3489 60.2756 69.5304 59.7145 69.8097 58.7508L70.0613 57.8974C70.2008 57.4081 70.3125 57.1629 70.3974 57.1629C70.4663 57.2737 70.502 57.3527 70.502 57.3999C70.502 57.8425 70.3974 58.5456 70.1869 59.5093ZM70.7619 54.3758C70.5099 54.9327 70.2718 55.2111 70.0477 55.2111C69.8926 55.068 69.6684 54.8686 69.3743 54.6145C69.0802 54.3603 68.9327 54.1847 68.9327 54.0891L68.9748 53.9941C69.0591 53.7874 69.2129 53.4052 69.437 52.8478C69.4931 52.7207 69.6334 52.4422 69.8585 52.0124L69.9423 51.8931C69.9975 51.9572 70.0965 52.0367 70.2369 52.1318C70.5027 52.3549 70.6641 52.5135 70.7202 52.6091C70.874 52.8323 70.9721 53.0472 71.0143 53.2538C71.0573 53.5245 70.9721 53.8985 70.7619 54.3758ZM58.7042 59.4973C58.7042 59.7775 58.6185 60.0496 58.4467 60.3136C58.1047 60.8427 57.8558 61.1229 57.699 61.1537C57.6703 61.1537 57.6055 61.1148 57.5066 61.0371C57.1779 60.7882 57.007 60.6484 56.9928 60.6171C56.779 60.4616 56.6582 60.3838 56.6295 60.3838C56.4872 60.2753 56.4079 60.1662 56.3942 60.0572L56.8861 58.8441C57.0425 58.5487 57.1779 58.3074 57.2919 58.1211L57.4209 57.9111C57.5198 57.9576 57.6703 58.0434 57.87 58.1676C58.112 58.37 58.283 58.5255 58.3828 58.6341C58.5679 58.8365 58.6678 59.0389 58.6828 59.2409C58.696 59.3035 58.7042 59.3888 58.7042 59.4973ZM61.0995 61.807C60.4006 64.1398 59.2454 65.7881 57.6347 66.7523C57.007 67.1259 56.2949 67.3122 55.4961 67.3122C54.6117 67.3122 53.927 67.0128 53.4428 66.4141C52.9582 65.8154 52.7161 65.0263 52.7161 64.0464C52.7161 62.5067 53.3215 60.6019 54.5333 58.3311C54.676 58.0666 54.7827 57.9424 54.8542 57.9576C54.8825 57.9732 54.8898 58.059 54.8761 58.2145C54.8469 58.37 54.8182 58.5023 54.79 58.6108L54.0847 60.2904C53.7428 61.0997 53.5709 61.7994 53.5709 62.39C53.5709 64.0232 54.3983 64.8395 56.0519 64.8395C57.8198 64.8395 59.2171 63.9682 60.2438 62.227C60.5716 61.6823 60.7425 61.0527 60.7567 60.3374L60.7995 58.6578C60.8136 58.1908 60.9344 57.639 61.1633 57.0014L61.5909 56.0917C61.7049 55.8428 61.7975 55.6797 61.8686 55.6015C61.9402 55.6797 61.9684 55.7807 61.9543 55.9049L61.8471 56.7212L61.7405 57.8879C61.7405 58.5725 61.6338 59.4277 61.42 60.454C61.2919 61.0759 61.1847 61.5268 61.0995 61.807ZM49.9048 63.1904C49.4766 63.9443 49.2629 64.5452 49.2629 64.9922L49.6166 65.3387C49.8387 65.5697 49.9491 65.7391 49.9491 65.8466C49.9491 66.0626 49.8892 66.2661 49.7722 66.4591C49.6534 66.6516 49.4987 66.7481 49.3073 66.7481C48.9536 66.7481 48.7767 66.4476 48.7767 65.8466C48.7767 65.4927 48.9757 64.8072 49.3737 63.7908C49.7864 62.7124 50.1113 62.1969 50.3471 62.2429C50.1995 62.5509 50.0524 62.8669 49.9048 63.1904ZM43.1749 54.8913C43.2039 54.829 43.2684 54.7122 43.3693 54.5408C43.3835 54.5094 43.4194 54.4629 43.477 54.4002C43.5203 54.4786 43.5419 54.5408 43.5419 54.5873L43.4342 55.3818L43.3043 56.6907L43.0672 58.7703C42.9663 59.6275 42.7927 60.3366 42.5482 60.8969L42.0518 62.0192C41.7492 62.6888 41.5112 63.0241 41.3385 63.0241L41.2735 62.8602C41.7198 61.209 42.0011 59.8536 42.1162 58.7941L42.2673 57.3218L42.5049 56.5971L43.1749 54.8913ZM40.1292 70.1492C39.8221 70.6303 39.5641 70.8711 39.3538 70.8711C39.34 70.8711 39.1587 70.6847 38.8101 70.3124C38.4601 69.9396 38.286 69.7381 38.286 69.7069C38.286 69.6454 38.4601 69.2802 38.8101 68.6127C39.1168 68.0233 39.298 67.7281 39.3538 67.7281C39.4096 67.7281 39.5493 67.8444 39.7734 68.0772C40.1917 68.5275 40.4011 68.9079 40.4011 69.2182C40.4011 69.5598 40.3105 69.8696 40.1292 70.1492ZM39.019 73.0821C38.7123 73.5632 38.4543 73.804 38.244 73.804C38.2302 73.804 38.0485 73.6176 37.6998 73.2453C37.3512 72.873 37.1766 72.671 37.1766 72.6398C37.1766 72.5778 37.3512 72.2131 37.6998 71.5461C38.007 70.9562 38.1882 70.6615 38.244 70.6615C38.2998 70.6615 38.4391 70.7779 38.6632 71.0106C39.0819 71.4605 39.2913 71.8408 39.2913 72.1511C39.2913 72.4927 39.2007 72.803 39.019 73.0821ZM38.0556 70.1492C37.7489 70.6303 37.4905 70.8711 37.2815 70.8711C37.2668 70.8711 37.0851 70.6847 36.7365 70.3124C36.3878 69.9396 36.2133 69.7381 36.2133 69.7069C36.2133 69.6454 36.3878 69.2802 36.7365 68.6127C37.0436 68.0233 37.2248 67.7281 37.2815 67.7281C37.3365 67.7281 37.4766 67.8444 37.6998 68.0772C38.1186 68.5275 38.3275 68.9079 38.3275 69.2182C38.3275 69.5598 38.2369 69.8696 38.0556 70.1492ZM34.897 73.0581C34.6389 73.5942 34.3941 73.8622 34.1644 73.8622C34.0065 73.7245 33.7768 73.5325 33.4756 73.2879C33.1743 73.0432 33.0232 72.8741 33.0232 72.7826L33.0663 72.6906C33.1527 72.4917 33.3102 72.1237 33.5398 71.5871C33.5973 71.4647 33.741 71.1967 33.9706 70.7829L34.0565 70.668C34.1139 70.7297 34.2145 70.8063 34.3592 70.8978C34.6315 71.1126 34.7968 71.2658 34.8543 71.3573C35.0118 71.5721 35.1124 71.779 35.1555 71.9779C35.1987 72.2385 35.1124 72.5986 34.897 73.0581ZM32.6778 73.1958C32.4197 73.7319 32.1758 74 31.9462 74C31.7873 73.8622 31.5577 73.6708 31.2564 73.4256C30.9551 73.1809 30.804 73.0123 30.804 72.9203L30.8472 72.8283C30.9335 72.6294 31.0911 72.2614 31.3207 71.7253C31.3781 71.603 31.5219 71.3344 31.7524 70.9212L31.8383 70.8063C31.8948 70.8675 31.9963 70.944 32.14 71.0355C32.4124 71.2504 32.5777 71.4035 32.6351 71.4956C32.7926 71.7099 32.8932 71.9168 32.9364 72.1157C32.9805 72.3768 32.8932 72.7363 32.6778 73.1958ZM29.6906 58.5308C30.0057 57.7171 30.1634 57.1687 30.1634 56.8871C30.1634 56.7148 30.0272 56.3077 29.7548 55.6658C29.5113 55.2119 29.3967 54.9533 29.41 54.8907C29.6975 53.8727 29.9415 53.1216 30.1419 52.6362C30.4427 52.7297 30.6935 53.0748 30.8953 53.6694C31.0673 54.1548 31.153 54.6087 31.153 55.0315C31.153 55.5952 30.981 56.3784 30.6362 57.3801C30.4642 57.8812 30.185 58.6482 29.7979 59.6819C29.7979 59.8542 29.9988 60.0499 30.4 60.2689C30.7724 60.5505 30.9595 60.9815 30.9595 61.5604C30.9595 62.6724 30.6756 63.8424 30.1098 65.0718C29.5434 66.3002 28.8514 67.2206 28.0333 67.831C27.4317 68.2849 26.7571 68.512 26.012 68.512C25.1086 68.512 24.4198 68.1598 23.9465 67.4549C23.5169 66.8288 23.3009 66.0069 23.3009 64.9889C23.3009 64.0497 23.56 62.8914 24.0759 61.5136C24.1332 61.3723 24.3051 60.9423 24.5918 60.2217C24.6211 60.1434 24.7788 59.7912 25.0655 59.165C25.4094 58.3981 25.6171 58.022 25.6887 58.0378C25.7611 58.0535 25.7827 58.1394 25.7533 58.2959C25.7102 58.5155 25.6671 58.6797 25.6245 58.7889L24.5918 61.4196C24.262 62.2653 24.097 62.9697 24.097 63.5333C24.097 65.1612 24.8719 65.9754 26.4205 65.9754C27.2813 65.9754 28.0907 65.7325 28.8514 65.2476C29.7548 64.6682 30.2065 63.9481 30.2065 63.0871C30.2065 63.0556 29.952 62.8681 29.4425 62.5235C28.9335 62.1794 28.6795 61.8582 28.6795 61.5604C28.6795 61.2005 28.7726 60.7934 28.9587 60.3391C29.2742 59.5874 29.5177 58.9851 29.6906 58.5308ZM29.4877 73.0581C29.2296 73.5942 28.9848 73.8622 28.7552 73.8622C28.5972 73.7245 28.3676 73.5325 28.0663 73.2879C27.765 73.0432 27.6139 72.8741 27.6139 72.7826L27.6571 72.6906C27.7434 72.4917 27.901 72.1237 28.1306 71.5871C28.188 71.4647 28.3318 71.1967 28.5614 70.7829L28.6473 70.668C28.7047 70.7297 28.8053 70.8063 28.9499 70.8978C29.2223 71.1126 29.3876 71.2658 29.445 71.3573C29.6025 71.5721 29.7031 71.779 29.7463 71.9779C29.7895 72.2385 29.7031 72.5986 29.4877 73.0581ZM27.2686 73.1958C27.0105 73.7319 26.7666 74 26.537 74C26.3781 73.8622 26.1484 73.6708 25.8471 73.4256C25.5459 73.1809 25.3948 73.0123 25.3948 72.9203L25.4379 72.8283C25.5243 72.6294 25.6818 72.2614 25.9114 71.7253C25.9689 71.603 26.1126 71.3344 26.3432 70.9212L26.429 70.8063C26.4855 70.8675 26.587 70.944 26.7308 71.0355C27.0031 71.2504 27.1684 71.4035 27.2258 71.4956C27.3834 71.7099 27.484 71.9168 27.5271 72.1157C27.5712 72.3768 27.484 72.7363 27.2686 73.1958ZM21.0372 57.1333C21.1095 57.0869 21.1966 56.9936 21.2981 56.8535C21.6165 56.4032 21.7684 55.7583 21.7541 54.9198L21.7323 53.3587C21.7179 52.5822 21.7615 52.0618 21.8625 51.7976L22.6456 49.7238C22.6744 49.7086 22.7105 49.693 22.7541 49.6774C22.7684 49.7086 22.7758 49.7707 22.7758 49.8639C22.7758 50.1281 22.7615 50.4927 22.7323 50.9586C22.7036 51.5027 22.6887 51.8758 22.6887 52.0775C22.66 53.2422 22.6095 54.1201 22.5367 54.71C22.3778 55.9065 22.059 56.8227 21.5803 57.4595C21.5224 57.5372 21.3412 57.7469 21.0372 58.0888V57.1333ZM25.4832 46.0794L28.2151 43.6615C28.7411 43.1915 29.3677 42.5894 30.0939 41.8532C30.2932 41.6505 30.8547 41.055 31.7797 40.0694C32.7616 39.0207 33.2949 38.4415 33.3814 38.3317C33.3814 38.4105 33.3664 38.4806 33.3377 38.5431C33.153 39.482 32.3781 40.7029 31.0121 42.2058C30.3855 42.8948 29.4391 43.818 28.1723 44.9759C28.1154 45.0231 27.0625 45.9311 25.014 47.6997L23.5416 48.9673C22.9432 49.4841 22.6306 49.7183 22.602 49.6715C22.8295 48.9831 23.128 48.4196 23.4979 47.9812C23.8401 47.5899 24.5012 46.9564 25.4832 46.0794ZM20.4211 50.8753C20.164 51.4182 19.9201 51.6896 19.6913 51.6896C19.5338 51.5501 19.305 51.3558 19.0048 51.108C18.7047 50.8602 18.5541 50.689 18.5541 50.5963L18.5971 50.5032C18.6832 50.3017 18.8401 49.9291 19.0689 49.3857C19.1261 49.2618 19.2693 48.9904 19.4981 48.5714L19.5837 48.4551C19.6409 48.5175 19.7411 48.5951 19.8853 48.6877C20.1566 48.9053 20.3214 49.0604 20.3786 49.153C20.5355 49.3706 20.6357 49.5801 20.6788 49.7815C20.7218 50.0454 20.6357 50.41 20.4211 50.8753ZM19.305 47.9897C19.0479 48.5331 18.8035 48.8046 18.5756 48.8046C18.5331 48.8046 18.3033 48.6177 17.8883 48.2456C17.5881 47.9822 17.438 47.8034 17.438 47.7107L17.481 47.6176C17.5666 47.4161 17.724 47.0435 17.9528 46.5001C18.01 46.3762 18.1528 46.1048 18.3816 45.6858L18.4676 45.5695C18.5248 45.6319 18.625 45.7095 18.7687 45.8021C19.0405 46.0197 19.2048 46.1748 19.262 46.2674C19.4194 46.485 19.5197 46.6945 19.5627 46.8959C19.6052 47.1598 19.5196 47.5244 19.305 47.9897ZM18.21 51.0148C17.9528 51.5577 17.7098 51.8291 17.481 51.8291C17.3227 51.6896 17.0939 51.4958 16.7937 51.2475C16.4935 50.9997 16.343 50.829 16.343 50.7358L16.386 50.6427C16.472 50.4412 16.629 50.0686 16.8578 49.5257C16.915 49.4018 17.0582 49.1299 17.2879 48.7114L17.3735 48.5951C17.4298 48.657 17.5309 48.7346 17.6741 48.8272C17.9455 49.0448 18.1102 49.1999 18.1674 49.293C18.3244 49.5101 18.4246 49.7196 18.4676 49.921C18.5116 50.1854 18.4246 50.5495 18.21 51.0148ZM12.3777 59.4624L12.1268 60.6261C11.904 61.3704 11.7231 61.8695 11.5841 62.1224C11.3185 62.6292 10.9771 62.9777 10.5596 63.1674L9.80647 63.5241C9.47225 63.6825 9.14516 63.7616 8.82386 63.7616C8.75434 63.7616 8.71245 63.7297 8.69864 63.6665C8.65675 63.5241 8.85194 63.2625 9.28464 62.8826C9.42367 62.7562 9.70219 62.5105 10.1202 62.146C10.6639 61.6711 11.1095 61.0856 11.4584 60.3886C11.5422 60.2303 11.7231 59.668 12.0016 58.7021L12.2525 57.8468C12.3915 57.3564 12.503 57.1107 12.5876 57.1107C12.6562 57.2218 12.6919 57.3009 12.6919 57.3482C12.6919 57.7918 12.5876 58.4965 12.3777 59.4624ZM9.67872 55.5739C9.53664 55.9013 9.45158 56.0889 9.42352 56.1355C9.3104 56.323 9.2113 56.4168 9.12669 56.4168C8.97103 56.2916 8.87194 56.2293 8.82941 56.2293C8.41855 56.2293 7.90271 56.542 7.28054 57.1664C6.51584 57.9313 6.13394 58.47 6.13394 58.7823C6.13394 58.9074 6.18372 59.0397 6.28281 59.1806L6.66426 59.3915C7.21674 59.5633 7.49231 59.9926 7.49231 60.6794C7.49231 61.429 7.36516 62.2602 7.11086 63.1736C6.85521 64.0869 6.54435 64.8558 6.17648 65.4808C5.22806 67.0733 4.01857 67.8695 2.54708 67.8695C1.73984 67.8695 1.11451 67.5847 0.667904 67.015C0.222657 66.4448 3.33786e-05 65.7068 3.33786e-05 64.8016C3.33786e-05 63.4899 0.332159 62.0458 0.997766 60.4685L2.10048 57.8451C2.25613 57.4705 2.36925 57.2835 2.44075 57.2835C2.53984 57.2835 2.58916 57.3535 2.58916 57.4944C2.58916 57.6033 2.57513 57.6895 2.54708 57.7518C1.37243 60.578 0.784645 62.4437 0.784645 63.3495C0.784645 64.0362 1.02492 64.5593 1.50681 64.9187C1.91677 65.2309 2.44799 65.387 3.09821 65.387C4.24481 65.387 5.18598 64.9496 5.92218 64.0753C6.50181 63.388 6.79186 62.8026 6.79186 62.319C6.79186 62.1472 6.55114 61.9911 6.07059 61.8502C5.43349 61.6632 5.11494 61.2496 5.11494 60.6094C5.11494 59.5319 5.62399 58.2749 6.64299 56.8385C7.03892 56.2916 7.40045 55.8471 7.72579 55.5035C8.61764 54.582 9.34569 54.0747 9.91221 53.9809C10.0394 54.0747 10.0959 54.1765 10.0819 54.2855C10.0253 54.6449 9.89094 55.0742 9.67872 55.5739Z" fill="#233F9F"/>
</g>
<defs>
<clipPath id="clip0_41_2689">
<rect width="78" height="74" fill="white"/>
</clipPath>
</defs>
</svg>
